HIERARCHY
ROOT Hips
{
  OFFSET -102.467 93.6631 130.069
  CHANNELS 6 Xposition Yposition Zposition Zrotation Xrotation Yrotation
  JOINT LeftUpLeg
  {
    OFFSET 8.64259 1.95398 -2.38835
    CHANNELS 3 Zrotation Xrotation Yrotation
    JOINT LeftLeg
    {
      OFFSET 43.7702 0 0
      CHANNELS 3 Zrotation Xrotation Yrotation
      JOINT LeftFoot
      {
        OFFSET 40.6238 0 0
        CHANNELS 3 Zrotation Xrotation Yrotation
        JOINT LeftToeBase
        {
          OFFSET 12.7242 0 0
          CHANNELS 3 Zrotation Xrotation Yrotation
          End Site
          {
            OFFSET 0 0 0
          }
        }
      }
    }
  }
  JOINT RightUpLeg
  {
    OFFSET -8.2249 1.95398 -2.59336
    CHANNELS 3 Zrotation Xrotation Yrotation
    JOINT RightLeg
    {
      OFFSET 43.5653 0 0
      CHANNELS 3 Zrotation Xrotation Yrotation
      JOINT RightFoot
      {
        OFFSET 40.6238 0 0
        CHANNELS 3 Zrotation Xrotation Yrotation
        JOINT RightToeBase
        {
          OFFSET 12.7242 0 0
          CHANNELS 3 Zrotation Xrotation Yrotation
          End Site
          {
            OFFSET 0 0 0
          }
        }
      }
    }
  }
  JOINT Spine
  {
    OFFSET 0.165834 0.87714 6.61349
    CHANNELS 3 Zrotation Xrotation Yrotation
    JOINT Spine1
    {
      OFFSET 7.38963 1.71661e-005 0
      CHANNELS 3 Zrotation Xrotation Yrotation
      JOINT Spine2
      {
        OFFSET 11.9445 1.14441e-005 0
        CHANNELS 3 Zrotation Xrotation Yrotation
        JOINT Spine3
        {
          OFFSET 14.7254 4.19617e-005 0
          CHANNELS 3 Zrotation Xrotation Yrotation
          JOINT Spine4
          {
            OFFSET 10.9679 0 0
            CHANNELS 3 Zrotation Xrotation Yrotation
            JOINT RightShoulder
            {
              OFFSET 2.46616 -1.6653 3.69651
              CHANNELS 3 Zrotation Xrotation Yrotation
              JOINT RightArm
              {
                OFFSET 13.0012 0 0
                CHANNELS 3 Zrotation Xrotation Yrotation
                JOINT RightForeArm
                {
                  OFFSET 28.7848 1.52588e-005 0
                  CHANNELS 3 Zrotation Xrotation Yrotation
                  JOINT RightHand
                  {
                    OFFSET 26.5688 1.52588e-005 0
                    CHANNELS 3 Zrotation Xrotation Yrotation
                    End Site
                    {
                      OFFSET 0 0 0
                    }
                  }
                }
              }
            }
            JOINT LeftShoulder
            {
              OFFSET 2.38034 -1.29275 -3.7523
              CHANNELS 3 Zrotation Xrotation Yrotation
              JOINT LeftArm
              {
                OFFSET 16.3182 6.10351e-005 0
                CHANNELS 3 Zrotation Xrotation Yrotation
                JOINT LeftForeArm
                {
                  OFFSET 27.0901 0 0
                  CHANNELS 3 Zrotation Xrotation Yrotation
                  JOINT LeftHand
                  {
                    OFFSET 24.5451 1.52588e-005 0
                    CHANNELS 3 Zrotation Xrotation Yrotation
                    End Site
                    {
                      OFFSET 0 0 0
                    }
                  }
                }
              }
            }
            JOINT Neck
            {
              OFFSET 5.0226 -0.0266342 0
              CHANNELS 3 Zrotation Xrotation Yrotation
              JOINT Head
              {
                OFFSET 6.69363 2.86102e-005 0
                CHANNELS 3 Zrotation Xrotation Yrotation
                End Site
                {
                  OFFSET 0 0 0
                }
              }
            }
          }
        }
      }
    }
  }
}
MOTION
Frames:	17
Frame Time:	0.0416667
-303.323 78.2481 297.466 99.8393 36.3279 75.8571 -175.309 -13.5959 77.839 -41.9654 16.7488 1.54711 112.382 25.8939 19.453 0.37226 1.43036 10.0198 134.584 -13.6731 21.4957 92.387 -4.85222 90.3453 -31.2069 29.9828 10.9667 102.147 -16.36 6.07495 0.184659 3.7726 -89.4164 19.3246 0.673036 1.04974 7.65341 0.71857 1.01911 -14.8788 0.326455 1.20347 5.13387 0.326447 1.20346 118.217 -16.139 -41.1315 94.2671 -61.0817 50.0206 154.238 7.54841 -122.405 4.32928 -1.8407 -45.33 -63.1348 -16.112 132.457 -22.6596 -32.5003 29.1306 1.07213 75.3719 -0.000868553 13.5479 1.92232 9.9509 -74.5325 -3.08878 7.28092 11.526 -0.721423 -9.55054 
-303.645 78.1012 297.822 99.8615 36.3998 75.7779 -175.345 -13.1225 77.7346 -42.7096 16.7537 1.61778 113.423 26.891 19.4998 -1.27063 1.62973 9.26214 134.68 -14.1374 20.8605 91.6872 -4.63743 90.2799 -30.7476 29.9221 10.4642 102.186 -16.0414 6.39505 0.177964 3.77968 -89.4275 19.3106 0.653887 1.031 7.63947 0.698623 1.00123 -14.8928 0.313812 1.17983 5.11984 0.313815 1.17983 118.172 -16.0148 -41.1416 94.3653 -61.2201 50.1526 153.904 7.53092 -122.26 4.35962 -1.84553 -45.1838 -62.9934 -16.3949 132.603 -22.389 -32.1532 29.3202 0.929291 75.1654 -0.000856724 13.1897 1.87161 9.91589 -74.428 -3.14716 7.37631 11.4521 -0.731716 -9.57295 
-304.561 77.7044 298.834 99.9254 36.607 75.5497 -175.423 -11.6468 77.4553 -45.0282 16.6726 1.82078 116.454 29.5147 19.4466 -5.62688 2.3099 7.07369 134.96 -15.5188 19.1215 89.6919 -4.15099 90.1213 -29.2311 29.8006 8.9225 102.182 -15.077 7.32237 0.158505 3.80022 -89.4595 19.2699 0.598744 0.977584 7.59875 0.641206 0.950273 -14.9338 0.277275 1.11233 5.07887 0.277278 1.11232 118.048 -15.6686 -41.1653 94.6253 -61.6196 50.519 152.953 7.47928 -121.856 4.46848 -1.86361 -44.7541 -62.5826 -17.2091 133.022 -21.6469 -31.1548 29.8451 0.531343 74.5439 -0.000823065 12.1716 1.72914 9.81791 -74.1241 -3.31555 7.65247 11.2423 -0.763337 -9.64279 
-305.995 77.1445 300.411 100.026 36.9353 75.1874 -175.536 -9.26289 77.0364 -48.6192 16.3483 2.14409 121.048 32.9647 18.9682 -11.5536 3.65796 3.659 135.383 -17.8368 16.6146 86.6586 -3.76103 89.9243 -26.2299 29.8448 6.22627 101.793 -13.3318 8.89131 0.127394 3.83326 -89.51 19.2046 0.510553 0.893107 7.53343 0.549354 0.869768 -14.9995 0.218552 1.00524 5.01316 0.218545 1.00524 117.864 -15.1416 -41.1925 94.9867 -62.2578 51.0709 151.47 7.39469 -121.249 4.70046 -1.91033 -44.0447 -61.918 -18.5009 133.692 -20.5534 -29.5804 30.64 -0.0564922 73.4925 -0.000771966 10.589 1.51211 9.66876 -73.6355 -3.58725 8.10307 10.9151 -0.818185 -9.76788 
-307.868 76.5154 302.464 100.159 37.3697 74.7054 -175.659 -6.0004 76.4843 -53.3264 15.6534 2.57599 126.787 36.444 17.8538 -17.8661 5.76754 -0.599183 135.824 -21.0929 13.718 83.0777 -3.91068 89.67 -21.0211 30.6211 2.16694 100.407 -10.3594 11.4428 0.0852152 3.8773 -89.5775 19.1173 0.391592 0.780361 7.4462 0.425572 0.762362 -15.0872 0.138967 0.861971 4.92549 0.138973 0.861974 117.636 -14.4731 -41.2132 95.3854 -63.1139 51.7564 149.536 7.27725 -120.496 5.12183 -2.00383 -43.0537 -61.0091 -20.2179 134.594 -19.2281 -27.527 31.6508 -0.746294 72.0011 -0.0035413 8.54556 1.23974 9.48246 -72.9762 -3.95836 8.73028 10.4879 -0.898388 -9.95898 
-310.105 75.8919 304.906 100.319 37.8952 74.1173 -175.779 -2.01447 75.8096 -58.7683 14.5714 3.1032 133.044 39.361 16.2085 -23.6647 8.52405 -5.24875 136.05 -25.1903 10.7262 79.5536 -4.98367 89.2283 -12.0036 33.3211 -4.21171 96.6154 -4.9515 16.211 0.0324506 3.93096 -89.6604 19.0108 0.243968 0.641792 7.33976 0.271978 0.630423 -15.1941 0.0397995 0.685438 4.81851 0.0398165 0.685441 117.378 -13.699 -41.2195 95.7554 -64.1677 52.5213 147.229 7.12522 -119.652 5.80779 -2.16075 -41.7825 -59.8598 -22.3093 135.71 -17.7756 -25.1173 32.8388 0.98178 70.1243 -2.58766 6.15195 0.931318 9.27619 -72.1578 -4.42504 9.53926 9.9767 -1.00516 -10.2268 
-312.638 75.0937 307.661 100.502 38.4968 73.4362 -175.788 2.95608 75.2105 -65.3033 13.02 3.71201 139.744 41.4428 14.1547 -28.4409 11.6564 -9.91076 135.693 -29.9781 7.31831 70.3051 -6.65882 87.8164 10.4931 33.352 -18.5149 85.944 10.6162 30.4408 -0.0299645 3.99279 -89.7572 18.8879 0.070043 0.48002 7.2169 0.0911176 0.47646 -15.3176 -0.0774717 0.47888 4.69509 -0.0774384 0.478877 117.105 -12.8541 -41.2043 96.0242 -65.3975 53.3021 144.635 6.93463 -118.767 6.83645 -2.39229 -40.2417 -58.473 -24.722 137.028 -16.2836 -22.4993 34.1735 6.70487 67.7891 -9.47192 3.52718 0.605316 9.07145 -71.1917 -4.98032 10.5333 9.39655 -1.13848 -10.5802 
-318.39 69.758 314.08 100.705 39.1591 72.6762 -173.706 16.1657 72.8328 -84.1601 9.3437 4.37282 150.199 41.5275 11.2563 -32.0433 14.8543 -14.3362 129.983 -37.086 -7.55039 113.572 6.52257 88.2841 103.386 38.4316 -130.408 16.3306 -1.87749 77.3504 -0.100889 4.06137 -89.8658 18.7512 -0.126795 0.298355 7.0802 -0.113529 0.303632 -15.4548 -0.21059 0.246457 4.55786 -0.210601 0.246453 116.831 -11.9727 -41.1607 96.1036 -66.7771 54.0153 141.851 6.69816 -117.886 8.28012 -2.6996 -38.4533 -56.8531 -27.398 138.53 -14.8244 -19.837 35.6228 11.3081 64.9671 -15.2299 0.797356 0.278176 8.89449 -70.0888 -5.61207 11.7085 8.76214 -1.29709 -11.0248 
-325.72 64.1986 322.791 100.924 39.8679 71.8514 -171.03 32.6668 70.8427 -100.483 6.92177 5.10126 152.94 40.3036 11.8104 -34.5627 17.8731 -18.4002 173.577 -16.4176 36.5308 -83.65 -36.1957 28.0644 155.479 62.332 -63.3651 -70.0771 -19.0034 52.4513 -0.178629 4.13566 -89.9835 18.6028 -0.341685 0.101025 6.93193 -0.33692 0.115965 -15.6036 -0.356268 -0.00633191 4.40905 -0.356254 -0.00633589 116.566 -11.0879 -41.0822 95.8864 -68.2734 54.5521 138.992 6.40482 -117.045 10.1877 -3.06933 -36.4483 -55.0072 -30.2789 140.2 -13.4551 -17.2859 37.1466 14.968 61.7938 -20.0082 -1.91692 -0.0380648 8.77389 -68.8603 -6.30189 13.0488 8.08784 -1.47921 -11.5617 
-326.113 67.1648 322.554 101.156 40.6098 70.9754 -172.194 30.571 69.6733 -96.7381 6.12697 5.89693 153.782 41.323 11.6498 -36.1934 20.5681 -22.0493 158.881 -14.1241 61.4383 3.735 70.7055 -89.0811 134.609 10.9565 153.211 41.4824 -43.3191 -66.8225 -0.260814 4.21464 -90.1071 18.4446 -0.568216 -0.106783 6.7738 -0.572355 -0.0816791 -15.7622 -0.509849 -0.272615 4.25048 -0.509843 -0.272631 116.324 -10.2302 -40.9624 95.2411 -69.8451 54.7733 136.187 6.04097 -116.27 12.5684 -3.47274 -34.2587 -52.9455 -33.3095 142.017 -12.218 -14.9692 38.6948 17.7671 58.4091 -23.8609 -4.51253 -0.336465 8.73706 -67.5187 -7.02632 14.5234 7.38794 -1.6833 -12.1868 
-327.853 68.0633 324.717 101.4 41.3725 70.0623 -172.716 33.0224 68.3167 -97.3596 5.04815 6.72817 153.597 41.0029 12.5755 -37.1524 22.8732 -25.2587 154.434 -25.0311 58.4197 60.6815 61.5177 -127.677 66.2825 -25.5397 150.782 48.7839 9.81829 36.2448 -0.344286 4.29763 -90.2328 18.2779 -0.798074 -0.318771 6.60717 -0.811334 -0.283347 -15.9291 -0.665366 -0.543895 4.0835 -0.665375 -0.543903 116.116 -9.4286 -40.796 94.0044 -71.4387 54.5 133.577 5.59179 -115.579 15.3798 -3.86536 -31.9095 -50.6829 -36.4387 143.955 -11.143 -12.9711 40.2074 19.8394 54.9359 -26.9081 -6.90605 -0.614486 8.80836 -66.0794 -7.7571 16.0852 6.67771 -1.90893 -12.8916 
-330.375 68.1105 327.311 101.653 42.1448 69.1271 -172.253 36.9092 66.2203 -99.2818 4.13104 7.58685 152.488 40.6593 13.8651 -37.6404 24.7722 -28.0156 148.755 -33.2328 52.76 68.2106 65.2214 -123.43 55.2386 -32.9063 135.747 36.7617 8.8851 46.9953 -0.425074 4.38413 -90.3555 18.1038 -1.02108 -0.527186 6.43312 -1.04329 -0.481731 -16.1034 -0.81544 -0.809691 3.90924 -0.815457 -0.809695 115.951 -8.71205 -40.5799 91.9817 -72.9827 53.5148 131.314 5.04507 -114.98 18.5155 -4.18764 -29.4102 -48.2423 -39.6212 145.981 -10.2484 -11.3335 41.616 21.3129 51.4687 -29.2767 -9.03481 -0.87267 9.00737 -64.5643 -8.46301 17.6677 5.97514 -2.15706 -13.663 
-332.969 67.8775 330.003 101.914 42.9168 68.1849 -171.402 41.0811 63.8152 -101.19 3.43388 8.45906 150.477 40.0973 15.5469 -37.822 26.2782 -30.3101 141.842 -40.4451 45.4656 78.3551 70.1759 -121.595 48.6618 -36.4732 125.508 28.3147 7.88908 51.0525 -0.498996 4.4737 -90.4701 17.923 -1.22594 -0.722992 6.25245 -1.25657 -0.668343 -16.2842 -0.951987 -1.05802 3.72849 -0.951977 -1.05802 115.839 -8.1097 -40.3157 88.9766 -74.3874 51.5921 129.531 4.39984 -114.469 21.8105 -4.37198 -26.7499 -45.6522 -42.8206 148.06 -9.53823 -10.0567 42.8506 22.2944 48.0695 -31.0834 -10.8584 -1.11299 9.3464 -63.001 -9.11292 19.1889 5.30116 -2.43031 -14.4851 
-335.431 67.6188 332.535 102.182 43.6802 67.2508 -170.341 44.8681 61.2624 -102.327 3.09448 9.33109 147.599 39.4436 17.4722 -37.822 27.4142 -32.1291 131.891 -47.197 35.1203 95.4942 76.2687 -124.23 44.7198 -40.1729 116.198 22.8406 6.78696 52.1931 -0.561827 4.56637 -90.5705 17.7359 -1.40139 -0.896532 6.06545 -1.43947 -0.833995 -16.4711 -1.06715 -1.27625 3.54154 -1.06717 -1.27625 115.789 -7.65191 -40.0109 84.8511 -75.5481 48.5627 128.328 3.67349 -114.039 25.0656 -4.35375 -23.905 -42.9434 -46.0106 150.154 -9.00121 -9.10859 43.8449 22.867 44.7727 -32.4274 -12.3543 -1.33693 9.83004 -61.4204 -9.67918 20.5586 4.67927 -2.73245 -15.342 
-337.589 67.4653 334.698 102.457 44.4287 66.34 -169.224 47.8904 58.6997 -102.577 3.02763 10.1853 144.269 38.7412 19.4337 -37.7297 28.199 -33.4542 114.722 -53.2223 17.6224 147.257 82.6381 -155.138 41.5282 -46.2086 104.905 19.112 5.88925 51.8246 -0.609702 4.66233 -90.6509 17.5424 -1.53688 -1.03779 5.87203 -1.58105 -0.969141 -16.6644 -1.15396 -1.45169 3.34829 -1.15396 -1.45169 115.807 -7.37309 -39.682 79.638 -76.3497 44.4296 127.757 2.90719 -113.679 28.0667 -4.08143 -20.8516 -40.1493 -49.1733 152.229 -8.61416 -8.43542 44.5372 23.0896 41.5933 -33.3875 -13.5098 -1.54405 10.4558 -59.8569 -10.14 21.6837 4.13636 -3.06814 -16.2199 
-339.287 67.4962 336.302 102.739 45.1571 65.468 -168.302 49.823 56.3577 -101.879 3.14017 11.0003 140.86 38.065 21.2686 -37.6002 28.6356 -34.2569 105.897 -54.9934 9.17887 177.996 86.2543 -178.378 37.7248 -44.7027 97.2675 16.6681 5.26452 50.532 -0.639468 4.76213 -90.706 17.3416 -1.6234 -1.1371 5.67124 -1.6719 -1.06453 -16.865 -1.20667 -1.5724 3.1477 -1.20666 -1.57241 115.9 -7.3159 -39.3572 73.6566 -76.6789 39.4899 127.822 2.17139 -113.391 30.6059 -3.53026 -17.5805 -37.3037 -52.2973 154.253 -8.34533 -7.96786 44.8696 22.9988 38.5338 -34.0241 -14.3163 -1.73078 11.214 -58.3428 -10.4802 22.4753 3.70362 -3.44329 -17.1109 
-340.379 67.7627 337.176 103.029 45.8626 64.6504 -167.877 50.4245 54.5187 -100.194 3.37625 11.7485 137.612 37.5111 22.8895 -37.4508 28.7023 -34.4914 104.463 -55.5383 8.39327 10.0968 88.5071 -11.013 35.4259 -39.1643 93.6045 15.391 4.91178 48.5453 -0.649028 4.86684 -90.7313 17.1316 -1.65475 -1.18659 5.46119 -1.70534 -1.11262 -17.0748 -1.22166 -1.62902 2.93786 -1.22167 -1.62902 116.075 -7.53601 -39.0804 67.4872 -76.4433 34.3174 128.481 1.56588 -113.191 32.5152 -2.71574 -14.1091 -34.4388 -55.3744 156.199 -8.15974 -7.62701 44.7889 22.6136 35.592 -34.3809 -14.7636 -1.88916 12.0863 -56.9055 -10.6939 22.8609 3.41561 -3.86481 -18.0187 
